HIERARCHY
ROOT reference
{
  OFFSET 0 0 0
  CHANNELS 6 Xposition Yposition Zposition Zrotation Xrotation Yrotation
  JOINT Hips
  {
    OFFSET 25.4934 74.4629 -184.085
    CHANNELS 6 Xposition Yposition Zposition Zrotation Xrotation Yrotation
    JOINT Spine
    {
      OFFSET 0 7.57377 0
      CHANNELS 6 Xposition Yposition Zposition Zrotation Xrotation Yrotation
      JOINT Spine1
      {
        OFFSET 0 21.6353 0
        CHANNELS 6 Xposition Yposition Zposition Zrotation Xrotation Yrotation
        JOINT Neck
        {
          OFFSET 0 21.5464 1.95876
          CHANNELS 6 Xposition Yposition Zposition Zrotation Xrotation Yrotation
          JOINT Head
          {
            OFFSET 0 12.9308 -1.84726
            CHANNELS 6 Xposition Yposition Zposition Zrotation Xrotation Yrotation
            End Site
            {
              OFFSET 0 23.0907 0
            }
          }
        }
        JOINT LeftShoulder
        {
          OFFSET 3.70822 19.5981 -0.368577
          CHANNELS 6 Xposition Yposition Zposition Zrotation Xrotation Yrotation
          JOINT LeftArm
          {
            OFFSET 11.1726 0 0
            CHANNELS 6 Xposition Yposition Zposition Zrotation Xrotation Yrotation
            JOINT LeftForeArm
            {
              OFFSET 28.6421 0 0
              CHANNELS 6 Xposition Yposition Zposition Zrotation Xrotation Yrotation
              JOINT LeftHand
              {
                OFFSET 23.9346 0 0
                CHANNELS 6 Xposition Yposition Zposition Zrotation Xrotation Yrotation
                End Site
                {
                  OFFSET 13.8545 0 0
                }
              }
            }
          }
        }
        JOINT RightShoulder
        {
          OFFSET -3.63664 19.5981 -0.368577
          CHANNELS 6 Xposition Yposition Zposition Zrotation Xrotation Yrotation
          JOINT RightArm
          {
            OFFSET -11.1726 0 0
            CHANNELS 6 Xposition Yposition Zposition Zrotation Xrotation Yrotation
            JOINT RightForeArm
            {
              OFFSET -28.6421 0 0
              CHANNELS 6 Xposition Yposition Zposition Zrotation Xrotation Yrotation
              JOINT RightHand
              {
                OFFSET -23.9346 0 0
                CHANNELS 6 Xposition Yposition Zposition Zrotation Xrotation Yrotation
                End Site
                {
                  OFFSET -13.8545 0 0
                }
              }
            }
          }
        }
      }
    }
    JOINT LeftUpLeg
    {
      OFFSET 9.2363 0 0
      CHANNELS 6 Xposition Yposition Zposition Zrotation Xrotation Yrotation
      JOINT LeftLeg
      {
        OFFSET 0 -40.7061 0
        CHANNELS 6 Xposition Yposition Zposition Zrotation Xrotation Yrotation
        JOINT LeftFoot
        {
          OFFSET 0 -40.9975 0
          CHANNELS 6 Xposition Yposition Zposition Zrotation Xrotation Yrotation
          JOINT LeftToeBase
          {
            OFFSET 0 -6.00359 13.8545
            CHANNELS 6 Xposition Yposition Zposition Zrotation Xrotation Yrotation
            End Site
            {
              OFFSET 0 0 3.69452
            }
          }
        }
      }
    }
    JOINT RightUpLeg
    {
      OFFSET -9.2363 0 0
      CHANNELS 6 Xposition Yposition Zposition Zrotation Xrotation Yrotation
      JOINT RightLeg
      {
        OFFSET 0 -40.7061 0
        CHANNELS 6 Xposition Yposition Zposition Zrotation Xrotation Yrotation
        JOINT RightFoot
        {
          OFFSET 0 -40.9975 0
          CHANNELS 6 Xposition Yposition Zposition Zrotation Xrotation Yrotation
          JOINT RightToeBase
          {
            OFFSET 0 -6.00359 13.8545
            CHANNELS 6 Xposition Yposition Zposition Zrotation Xrotation Yrotation
            End Site
            {
              OFFSET 0 0 3.69452
            }
          }
        }
      }
    }
  }
}
MOTION
Frames:	10
Frame Time:	0.004
0 0 0 0 0 -0 -24.6624 80.9556 -154.907 0.800191 2.8928 10.6479 -3.55271e-015 7.57377 -2.84217e-014 -1.54035 -6.37311 -0.469683 7.10543e-015 21.6353 -2.84217e-014 -1.16562 -5.4992 -0.448332 0 21.5464 1.95876 -4.35458 12.7943 2.82298 0 12.9308 -1.84726 4.6567 24.0992 2.74262 3.70822 19.5981 -0.368577 -8.43453 -6.24199 13.999 11.1726 0 -1.42109e-014 -5.04571 -14.6874 -31.2369 28.6421 0 1.42109e-014 -9.64567 7.61371 13.6957 23.9346 0 -2.84217e-014 10.6011 8.34621 -4.53022 -3.63664 19.5981 -0.368577 -14.6688 0.04504 -6.85825 -11.1726 0 0 24.0125 -8.55291 5.66234 -28.6421 2.84217e-014 -1.42109e-014 6.53525 4.50213 -8.33106 -23.9346 0 1.42109e-014 -19.1611 5.03441 -0.341935 9.2363 1.42109e-014 0 -3.15209 -2.1345 -3.17476 0 -40.7061 -2.84217e-014 1.52201 5.96413 -2.89608 -1.77636e-015 -40.9975 0 10.7103 -22.3493 -4.44532 0 -6.00359 13.8545 -2.73329e-016 0 -3.97569e-016 -9.2363 0 0 -0.551406 1.55974 6.09931 0 -40.7061 0 3.41121 4.3179 2.53982 -7.10543e-015 -40.9975 0 -27.0904 -15.5191 -21.0065 0 -6.00359 13.8545 -3.47873e-015 3.18055e-015 3.97569e-016 
0 0 0 0 0 -0 -24.6635 80.9556 -154.906 0.800204 2.8927 10.648 3.55271e-015 7.57377 0 -1.54391 -6.3746 -0.469685 3.55271e-015 21.6353 0 -1.16225 -5.49854 -0.444202 7.10543e-015 21.5464 1.95876 -4.35465 12.7961 2.82302 0 12.9308 -1.84726 4.6598 24.1037 2.74281 3.70822 19.5981 -0.368577 -8.43454 -6.24199 13.9991 11.1726 2.84217e-014 0 -5.03275 -14.6482 -31.2309 28.6421 0 0 -9.63911 7.58737 13.6949 23.9346 0 0 10.6171 8.31887 -4.52831 -3.63664 19.5981 -0.368577 -14.6657 0.0376678 -6.86646 -11.1726 0 0 24.0098 -8.49724 5.67766 -28.6421 -2.84217e-014 2.84217e-014 6.52179 4.48757 -8.33353 -23.9346 0 -1.42109e-014 -19.1983 5.01736 -0.330349 9.2363 0 0 -3.15217 -2.13477 -3.17952 3.55271e-015 -40.7061 0 1.52077 5.96908 -2.88123 -1.77636e-015 -40.9975 2.84217e-014 10.6846 -22.3656 -4.45693 7.10543e-015 -6.00359 13.8545 -2.01269e-015 -6.36111e-015 6.95746e-016 -9.2363 0 -2.84217e-014 -0.557157 1.53951 5.98022 3.55271e-015 -40.7061 -2.84217e-014 3.41229 4.4028 3.00753 0 -40.9975 -2.84217e-014 -27.1968 -15.3985 -21.3249 0 -6.00359 13.8545 -5.01931e-015 1.59028e-015 1.19271e-015 
0 0 0 0 0 -0 -24.6649 80.9556 -154.902 0.800357 2.89248 10.6458 3.55271e-015 7.57377 -2.84217e-014 -1.54538 -6.37657 -0.469688 3.55271e-015 21.6353 0 -1.158 -5.49768 -0.439979 0 21.5464 1.95876 -4.35543 12.7984 2.82299 0 12.9308 -1.84726 4.6593 24.1212 2.7422 3.70822 19.5981 -0.368577 -8.43456 -6.24198 13.9992 11.1726 0 0 -5.01955 -14.6261 -31.2241 28.6421 0 1.42109e-014 -9.63841 7.58071 13.6947 23.9346 0 0 10.5971 8.31316 -4.52635 -3.63664 19.5981 -0.368577 -14.6554 0.0575239 -6.87041 -11.1726 -2.84217e-014 0 24.0054 -8.49508 5.69179 -28.6421 2.84217e-014 1.42109e-014 6.52138 4.48 -8.33594 -23.9346 0 1.42109e-014 -19.1714 5.01221 -0.345355 9.2363 -1.42109e-014 0 -3.15188 -2.13474 -3.17695 0 -40.7061 0 1.51883 5.96839 -2.8614 1.77636e-015 -40.9975 2.84217e-014 10.8689 -22.3359 -4.47498 0 -6.00359 13.8545 4.96962e-017 -6.36111e-015 2.98177e-016 -9.2363 0 0 -0.552917 1.52868 5.95478 0 -40.7061 0 3.4013 4.42463 3.08419 0 -40.9975 -2.84217e-014 -27.1902 -15.3938 -21.3774 -3.55271e-015 -6.00359 13.8545 1.98785e-015 0 -9.93923e-016 
0 0 0 0 0 -0 -24.6664 80.9556 -154.897 0.799857 2.89213 10.6564 -7.10543e-015 7.57377 -2.84217e-014 -1.54631 -6.37765 -0.469692 7.10543e-015 21.6353 0 -1.15415 -5.49705 -0.438951 -3.55271e-015 21.5464 1.95876 -4.35558 12.8002 2.81862 0 12.9308 -1.84726 4.66011 24.1275 2.7369 3.70822 19.5981 -0.368577 -8.43463 -6.24199 13.999 11.1726 0 0 -5.02935 -14.6396 -31.2197 28.6421 0 -1.42109e-014 -9.64542 7.58379 13.6948 23.9346 -2.84217e-014 -2.84217e-014 10.6268 8.3168 -4.52437 -3.63664 19.5981 -0.368577 -14.6402 0.0506258 -6.87085 -11.1726 0 0 23.9904 -8.48718 5.70204 -28.6421 0 -1.42109e-014 6.53654 4.46604 -8.33197 -23.9346 0 0 -19.2258 5.00021 -0.350982 9.2363 0 -2.84217e-014 -3.15124 -2.13466 -3.16163 -7.10543e-015 -40.7061 0 1.52442 5.96626 -2.91388 -1.77636e-015 -40.9975 0 10.7602 -22.3729 -4.42582 0 -6.00359 13.8545 -1.68967e-015 3.18055e-015 -9.93923e-016 -9.2363 0 0 -0.545058 1.5332 5.93342 3.55271e-015 -40.7061 0 3.40097 4.42213 3.10716 -3.55271e-015 -40.9975 0 -27.1923 -15.3941 -21.3936 0 -6.00359 13.8545 9.44227e-016 1.59028e-015 -1.98785e-016 
0 0 0 0 0 -0 -24.6678 80.9556 -154.892 0.799641 2.89196 10.6609 0 7.57377 0 -1.55005 -6.37284 -0.469691 3.55271e-015 21.6353 0 -1.14101 -5.4984 -0.438185 -3.55271e-015 21.5464 1.95876 -4.35436 12.8076 2.81369 0 12.9308 -1.84726 4.6613 24.133 2.73102 3.70822 19.5981 -0.368577 -8.43481 -6.24203 13.9976 11.1726 -2.84217e-014 2.84217e-014 -5.03073 -14.6363 -31.2156 28.6421 0 1.42109e-014 -9.65281 7.58815 13.695 23.9346 -2.84217e-014 1.42109e-014 10.6235 8.32146 -4.52214 -3.63664 19.5981 -0.368577 -14.6547 0.0606343 -6.85807 -11.1726 0 -2.84217e-014 24.0078 -8.45216 5.69558 -28.6421 -2.84217e-014 1.42109e-014 6.53585 4.44521 -8.31499 -23.9346 0 -1.42109e-014 -19.2853 4.98154 -0.368635 9.2363 0 0 -3.1518 -2.13451 -3.16956 3.55271e-015 -40.7061 -2.84217e-014 1.51959 5.96425 -2.86608 0 -40.9975 0 10.797 -22.4177 -4.45036 0 -6.00359 13.8545 -4.47266e-015 0 6.95746e-016 -9.2363 0 -2.84217e-014 -0.539629 1.56256 6.07675 3.55271e-015 -40.7061 0 3.40981 4.33488 2.59364 3.55271e-015 -40.9975 0 -27.0752 -15.5208 -21.0449 -3.55271e-015 -6.00359 13.8545 3.47873e-015 -1.59028e-015 -1.19271e-015 
0 0 0 0 0 -0 -24.6692 80.9556 -154.887 0.799393 2.89203 10.6652 0 7.57377 2.84217e-014 -1.55922 -6.37951 -0.4697 -3.55271e-015 21.6353 0 -1.13701 -5.49164 -0.437552 0 21.5464 1.95876 -4.3445 12.8135 2.81289 7.10543e-015 12.9308 -1.84726 4.66236 24.1286 2.72933 3.70822 19.5981 -0.368577 -8.43562 -6.24223 13.9903 11.1726 0 -1.42109e-014 -5.04042 -14.6505 -31.2125 28.6421 0 1.42109e-014 -9.65478 7.59161 13.6951 23.9346 0 1.42109e-014 10.6305 8.32556 -4.51809 -3.63664 19.5981 -0.368577 -14.6448 0.0687509 -6.86184 -11.1726 0 0 24.0073 -8.45747 5.70777 -28.6421 -2.84217e-014 0 6.54416 4.4513 -8.31655 -23.9346 0 -2.84217e-014 -19.3128 4.99053 -0.380912 9.2363 0 0 -3.15428 -2.1344 -3.15869 0 -40.7061 -2.84217e-014 1.52792 5.9615 -2.94505 -1.77636e-015 -40.9975 2.84217e-014 10.7533 -22.3833 -4.40872 0 -6.00359 13.8545 1.09332e-015 -3.18055e-015 1.2921e-015 -9.2363 0 -2.84217e-014 -0.534197 1.54498 5.97873 -3.55271e-015 -40.7061 2.84217e-014 3.40049 4.40607 3.00658 -3.55271e-015 -40.9975 0 -27.1794 -15.4092 -21.3417 0 -6.00359 13.8545 3.08116e-015 0 -3.97569e-016 
0 0 0 0 0 -0 -24.6705 80.9556 -154.884 0.799221 2.8925 10.6666 -3.55271e-015 7.57377 2.84217e-014 -1.56718 -6.38469 -0.469708 0 21.6353 0 -1.11938 -5.48389 -0.437037 0 21.5464 1.95876 -4.34781 12.8014 2.81293 0 12.9308 -1.84726 4.67075 24.1462 2.7292 3.70822 19.5981 -0.368577 -8.43593 -6.24232 13.9871 11.1726 0 0 -5.04646 -14.6477 -31.2071 28.6421 0 0 -9.65447 7.59059 13.695 23.9346 0 2.84217e-014 10.5684 8.32727 -4.51365 -3.63664 19.5981 -0.368577 -14.6498 0.0561142 -6.8638 -11.1726 0 0 23.9985 -8.40783 5.70895 -28.6421 -2.84217e-014 1.42109e-014 6.54085 4.43364 -8.31641 -23.9346 0 0 -19.2959 4.97435 -0.393334 9.2363 -1.42109e-014 2.84217e-014 -3.15485 -2.1343 -3.1607 -3.55271e-015 -40.7061 2.84217e-014 1.52218 5.9597 -2.8889 0 -40.9975 0 10.7158 -22.4077 -4.46062 0 -6.00359 13.8545 -1.76421e-015 3.18055e-015 -1.09332e-015 -9.2363 1.42109e-014 0 -0.538329 1.55888 6.07136 7.10543e-015 -40.7061 2.84217e-014 3.40912 4.37137 2.92866 3.55271e-015 -40.9975 0 -27.2271 -15.3833 -21.3586 0 -6.00359 13.8545 1.39149e-015 1.59028e-015 2.78299e-015 
0 0 0 0 0 -0 -24.6717 80.9556 -154.88 0.797685 2.89717 10.6789 3.55271e-015 7.57377 0 -1.57161 -6.38945 -0.469716 0 21.6353 0 -1.11533 -5.49123 -0.436628 -3.55271e-015 21.5464 1.95876 -4.34063 12.8114 2.80581 -7.10543e-015 12.9308 -1.84726 4.66343 24.1653 2.72096 3.70822 19.5981 -0.368577 -8.43585 -6.24232 13.987 11.1726 -2.84217e-014 -1.42109e-014 -5.01488 -14.5949 -31.1972 28.6421 0 0 -9.64375 7.55136 13.6906 23.9346 -2.84217e-014 -1.42109e-014 10.6009 8.28777 -4.5004 -3.63664 19.5981 -0.368577 -14.6433 0.0631465 -6.86516 -11.1726 0 0 24.0022 -8.45876 5.7145 -28.6421 2.84217e-014 0 6.55894 4.45432 -8.31548 -23.9346 0 -2.84217e-014 -19.3057 4.99396 -0.377843 9.2363 0 0 -3.15569 -2.13422 -3.17838 3.55271e-015 -40.7061 0 1.52385 5.95811 -2.90471 5.32907e-015 -40.9975 -2.84217e-014 10.7802 -22.4175 -4.42445 3.55271e-015 -6.00359 13.8545 -6.4605e-016 -3.18055e-015 8.94531e-016 -9.2363 -1.42109e-014 -2.84217e-014 -0.53427 1.5429 5.96888 -3.55271e-015 -40.7061 0 3.40711 4.40607 3.01992 -7.10543e-015 -40.9975 0 -27.153 -15.4197 -21.3711 -7.10543e-015 -6.00359 13.8545 -1.3418e-015 1.59028e-015 -0 
0 0 0 0 0 -0 -24.6712 80.9556 -154.877 0.796734 2.90105 10.683 0 7.57377 0 -1.57208 -6.39329 -0.469722 3.55271e-015 21.6353 2.84217e-014 -1.11584 -5.48353 -0.436284 0 21.5464 1.95876 -4.3287 12.8102 2.80081 0 12.9308 -1.84726 4.65945 24.1688 2.71544 3.70822 19.5981 -0.368577 -8.43565 -6.24232 13.9869 11.1726 -2.84217e-014 -1.42109e-014 -5.06354 -14.6796 -31.2102 28.6421 2.84217e-014 -1.42109e-014 -9.66009 7.60202 13.7259 23.9346 2.84217e-014 -1.42109e-014 10.5704 8.34204 -4.51488 -3.63664 19.5981 -0.368577 -14.6317 0.0637445 -6.86629 -11.1726 -5.68434e-014 -2.84217e-014 23.9979 -8.42675 5.72061 -28.6421 0 0 6.55808 4.44167 -8.31772 -23.9346 0 0 -19.2502 4.97494 -0.340574 9.2363 0 0 -3.15574 -2.13398 -3.17746 -3.55271e-015 -40.7061 0 1.52435 5.95747 -2.90991 0 -40.9975 0 10.7872 -22.4147 -4.42749 0 -6.00359 13.8545 7.20594e-016 -6.36111e-015 2.98177e-016 -9.2363 0 -2.84217e-014 -0.533504 1.53755 5.93659 3.55271e-015 -40.7061 0 3.40641 4.41746 3.06601 -7.10543e-015 -40.9975 2.84217e-014 -27.182 -15.4149 -21.3884 -3.55271e-015 -6.00359 13.8545 -3.03147e-015 1.59028e-015 -1.39149e-015 
0 0 0 0 0 -0 -24.672 80.9556 -154.874 0.79459 2.90984 10.6921 0 7.57377 0 -1.57991 -6.39404 -0.469723 0 21.6353 2.84217e-014 -1.10132 -5.4837 -0.435997 3.55271e-015 21.5464 1.95876 -4.34997 12.804 2.79924 0 12.9308 -1.84726 4.6916 24.1901 2.71361 3.70822 19.5981 -0.368577 -8.43588 -6.24248 13.9812 11.1726 0 1.42109e-014 -5.0477 -14.6344 -31.2033 28.6421 2.84217e-014 1.42109e-014 -9.65299 7.57696 13.7224 23.9346 2.84217e-014 -1.42109e-014 10.5739 8.31619 -4.51467 -3.63664 19.5981 -0.368577 -14.6611 0.0783794 -6.86707 -11.1726 0 0 24.0334 -8.43633 5.72386 -28.6421 0 2.84217e-014 6.57462 4.40768 -8.32607 -23.9346 0 0 -19.4585 4.93984 -0.320415 9.2363 0 -2.84217e-014 -3.1565 -2.14611 -3.17913 0 -40.7061 0 1.5208 5.96833 -2.87213 3.55271e-015 -40.9975 -2.84217e-014 10.7062 -22.4063 -4.47926 0 -6.00359 13.8545 -2.48481e-016 0 -1.2921e-015 -9.2363 0 0 -0.533323 1.52881 5.93232 -1.42109e-014 -40.7061 0 3.41067 4.41981 3.05325 -3.55271e-015 -40.9975 0 -27.2042 -15.4075 -21.3865 0 -6.00359 13.8545 -1.73937e-015 -1.59028e-015 7.95139e-016 
